<svg width="24" height="24" viewBox="0 0 24 24" fill="none" xmlns="http://www.w3.org/2000/svg">
<g clip-path="url(#clip0_218_4600)">
<path d="M22.5874 14.3063C22.1156 13.5725 21.6439 12.8649 21.1722 12.1311C21.0674 11.9739 21.0674 11.8691 21.1722 11.7118C21.6439 11.0042 22.0894 10.2967 22.5611 9.58907C23.1115 8.75045 22.8232 7.93803 21.8798 7.59734C21.0936 7.30906 20.3074 6.99458 19.5211 6.70631C19.3639 6.65389 19.2853 6.54906 19.2853 6.36562C19.2591 5.50079 19.2067 4.63596 19.1542 3.79734C19.1018 2.8801 18.3943 2.35596 17.5032 2.59182C16.6646 2.80148 15.826 3.03734 15.0136 3.2732C14.8301 3.32562 14.7253 3.2732 14.5942 3.14217C14.0701 2.46079 13.5198 1.80562 12.9956 1.15044C12.4191 0.416649 11.528 0.416649 10.9253 1.15044C10.4011 1.80562 9.8508 2.46079 9.35287 3.11596C9.22184 3.29941 9.0908 3.32562 8.88115 3.2732C8.06873 3.03734 7.25632 2.82769 6.67977 2.67044C5.55287 2.40837 4.87149 2.85389 4.81908 3.79734C4.76666 4.66217 4.71425 5.527 4.68804 6.41803C4.68804 6.60148 4.60942 6.6801 4.45218 6.75872C3.63977 7.0732 2.82736 7.38768 2.01494 7.70217C1.17632 8.04286 0.914252 8.85527 1.41218 9.61527C1.88391 10.3491 2.35563 11.0567 2.82735 11.7904C2.93218 11.9477 2.93218 12.0525 2.82735 12.236C2.32942 12.9698 1.8577 13.7036 1.38597 14.4635C0.940456 15.1711 1.22873 16.0098 2.01494 16.3242C2.82735 16.6387 3.66597 16.9532 4.47838 17.2677C4.66183 17.3201 4.71424 17.4249 4.71424 17.6084C4.74045 18.447 4.84528 19.2594 4.84528 20.098C4.84528 20.9367 5.57907 21.6967 6.60114 21.3822C7.41355 21.1201 8.22597 20.9366 9.03838 20.7008C9.19562 20.6484 9.30045 20.6746 9.40528 20.8318C9.95562 21.5132 10.4798 22.1684 11.0301 22.8498C11.6329 23.5835 12.4977 23.5835 13.0742 22.8498C13.6246 22.1684 14.1487 21.5132 14.6991 20.8318C14.8039 20.7008 14.8825 20.6484 15.066 20.7008C15.9046 20.9366 16.7432 21.1463 17.5818 21.3822C18.4467 21.618 19.1804 21.0939 19.2067 20.2029C19.2591 19.338 19.3115 18.4732 19.3377 17.5822C19.3377 17.3725 19.4425 17.2939 19.5998 17.2415C20.386 16.9532 21.1984 16.6387 21.9846 16.3242C22.8232 15.9049 23.0853 15.0663 22.5874 14.3063ZM16.3239 10.0084L11.0825 15.2498C10.9515 15.3808 10.768 15.4856 10.5846 15.5118C10.5322 15.5118 10.4536 15.538 10.4012 15.538C10.1653 15.538 9.90322 15.4332 9.71977 15.2498L7.57081 13.1008C7.20391 12.7339 7.20391 12.1311 7.57081 11.7642C7.9377 11.3973 8.54046 11.3973 8.90736 11.7642L10.3749 13.2318L14.9349 8.67182C15.3018 8.30493 15.9046 8.30493 16.2715 8.67182C16.6908 9.03872 16.6908 9.64148 16.3239 10.0084Z" fill="#22A2C4" style="fill:#22A2C4;fill:color(display-p3 0.1333 0.6353 0.7686);fill-opacity:1;"/>
</g>
<defs>
<clipPath id="clip0_218_4600">
<rect width="24" height="24" fill="white" style="fill:white;fill-opacity:1;"/>
</clipPath>
</defs>
</svg>
