<svg width="24" height="24" viewBox="0 0 24 24" fill="none" xmlns="http://www.w3.org/2000/svg">
<path d="M9.87775 12.545C10.4413 13.1063 11.2043 13.4215 11.9998 13.4215C12.7952 13.4215 13.5582 13.1063 14.1217 12.545L23.7808 2.88502C23.5584 2.329 23.1747 1.85225 22.6791 1.51613C22.1835 1.18002 21.5986 0.999922 20.9998 0.999023H2.99975C2.40091 0.999922 1.81604 1.18002 1.32042 1.51613C0.824805 1.85225 0.441119 2.329 0.21875 2.88502L9.87775 12.545Z" fill="#32A598" style="fill:#32A598;fill:color(display-p3 0.1961 0.6471 0.5961);fill-opacity:1;"/>
<path d="M15.536 13.959C14.5974 14.8953 13.3257 15.4211 12 15.4211C10.6743 15.4211 9.40263 14.8953 8.464 13.959L0 5.49902V22.999H24V5.49902L15.536 13.959Z" fill="#32A598" style="fill:#32A598;fill:color(display-p3 0.1961 0.6471 0.5961);fill-opacity:1;"/>
</svg>
