<svg width="24" height="24" viewBox="0 0 24 24" fill="none" xmlns="http://www.w3.org/2000/svg">
<path d="M23.9999 6.23871C23.9999 13.8787 13.8699 23.9987 6.23994 23.9987C4.56994 23.9987 3.00994 23.3687 1.85994 22.2187L0.859943 21.0687C-0.300057 19.9087 -0.300057 17.9487 0.909943 16.7387C0.939943 16.7087 3.34994 14.8587 3.34994 14.8587C4.54994 13.7187 6.43994 13.7187 7.62994 14.8587L9.08994 16.0287C12.2899 14.6687 14.5599 12.3887 16.0199 9.07871L14.8599 7.61871C13.7099 6.42871 13.7099 4.52871 14.8599 3.33871C14.8599 3.33871 16.7099 0.928711 16.7399 0.898711C17.9499 -0.311289 19.9099 -0.311289 21.1199 0.898711L22.1699 1.80871C23.3699 2.99871 23.9999 4.55871 23.9999 6.22871V6.23871Z" fill="#32A598" style="fill:#32A598;fill:color(display-p3 0.1961 0.6471 0.5961);fill-opacity:1;"/>
</svg>
