<svg width="16" height="17" viewBox="0 0 16 17" fill="none" xmlns="http://www.w3.org/2000/svg">
<path d="M14.4955 6.51468L3.4955 0.308681C3.13627 0.103388 2.72907 -0.00309329 2.31533 6.84113e-05C1.90158 0.00323011 1.49606 0.115922 1.14 0.326681C0.793118 0.525074 0.504924 0.811747 0.304698 1.15758C0.104471 1.50341 -0.000653486 1.89607 3.05649e-06 2.29568V14.7077C-0.000653486 15.1073 0.104471 15.5 0.304698 15.8458C0.504924 16.1916 0.793118 16.4783 1.14 16.6767C1.49609 16.8873 1.9016 17 2.31533 17.0031C2.72905 17.0063 3.13624 16.8999 3.4955 16.6947L14.4955 10.4887C14.8503 10.2922 15.1459 10.0042 15.3518 9.65482C15.5577 9.30541 15.6663 8.90724 15.6663 8.50168C15.6663 8.09612 15.5577 7.69796 15.3518 7.34854C15.1459 6.99913 14.8503 6.7112 14.4955 6.51468Z" fill="#32A598" style="fill:#32A598;fill:color(display-p3 0.1961 0.6471 0.5961);fill-opacity:1;"/>
</svg>
