<svg width="18" height="18" viewBox="0 0 18 18" fill="none" xmlns="http://www.w3.org/2000/svg">
<g clip-path="url(#clip0_68_585)">
<path d="M17.5821 5.17445C17.5409 4.23929 17.3897 3.59638 17.1731 3.03929C16.9496 2.44795 16.6058 1.91853 16.1553 1.47841C15.7152 1.03145 15.1823 0.684143 14.5978 0.464153C14.0375 0.247522 13.3979 0.0962957 12.4628 0.0550645C11.5206 0.0103414 11.2215 0 8.83199 0C6.44246 0 6.14337 0.0103414 5.20472 0.0515726C4.26957 0.0928038 3.62665 0.244164 3.0697 0.460661C2.47822 0.684143 1.9488 1.02796 1.50869 1.47841C1.06172 1.91853 0.71455 2.45144 0.494427 3.03593C0.277795 3.59638 0.126569 4.2358 0.0853379 5.17096C0.0406148 6.1131 0.0302734 6.41219 0.0302734 8.80172C0.0302734 11.1912 0.0406148 11.4903 0.081846 12.429C0.123077 13.3641 0.274437 14.0071 0.491069 14.5642C0.71455 15.1555 1.06172 15.6849 1.50869 16.125C1.9488 16.572 2.48172 16.9193 3.06621 17.1393C3.62665 17.3559 4.26607 17.5071 5.20136 17.5484C6.13988 17.5897 6.43911 17.5999 8.82864 17.5999C11.2182 17.5999 11.5173 17.5897 12.4559 17.5484C13.3911 17.5071 14.034 17.3559 14.5909 17.1393C15.7737 16.682 16.7089 15.7468 17.1662 14.5642C17.3827 14.0037 17.5341 13.3641 17.5753 12.429C17.6165 11.4903 17.6269 11.1912 17.6269 8.80172C17.6269 6.41219 17.6234 6.1131 17.5821 5.17445ZM15.9972 12.3602C15.9593 13.2198 15.815 13.6839 15.6946 13.9934C15.3989 14.7601 14.7904 15.3686 14.0236 15.6644C13.7142 15.7847 13.2467 15.9291 12.3905 15.9668C11.4622 16.0082 11.1838 16.0184 8.83549 16.0184C6.48719 16.0184 6.20528 16.0082 5.28033 15.9668C4.42079 15.9291 3.95664 15.7847 3.6472 15.6644C3.26565 15.5233 2.91834 15.2999 2.63643 15.0076C2.34419 14.7222 2.12071 14.3784 1.97969 13.9969C1.85935 13.6874 1.71498 13.2198 1.67724 12.3637C1.63587 11.4354 1.62567 11.1569 1.62567 8.80857C1.62567 6.46027 1.63587 6.17837 1.67724 5.25355C1.71498 4.39401 1.85935 3.92986 1.97969 3.62042C2.12071 3.23873 2.34419 2.89156 2.63993 2.60952C2.92519 2.31727 3.269 2.09379 3.6507 1.95291C3.96013 1.83257 4.42778 1.6882 5.28383 1.65032C6.21213 1.60909 6.49068 1.59875 8.83884 1.59875C11.1906 1.59875 11.469 1.60909 12.394 1.65032C13.2535 1.6882 13.7177 1.83257 14.0271 1.95291C14.4087 2.09379 14.756 2.31727 15.0379 2.60952C15.3301 2.89491 15.5536 3.23873 15.6946 3.62042C15.815 3.92986 15.9593 4.39737 15.9972 5.25355C16.0385 6.18186 16.0488 6.46027 16.0488 8.80857C16.0488 11.1569 16.0385 11.4319 15.9972 12.3602Z" fill="white" style="fill:white;fill-opacity:1;"/>
<path d="M8.83321 4.2793C6.33718 4.2793 4.31201 6.30433 4.31201 8.80049C4.31201 11.2967 6.33718 13.3217 8.83321 13.3217C11.3294 13.3217 13.3544 11.2967 13.3544 8.80049C13.3544 6.30433 11.3294 4.2793 8.83321 4.2793ZM8.83321 11.7333C7.21391 11.7333 5.90042 10.4199 5.90042 8.80049C5.90042 7.18106 7.21391 5.86771 8.83321 5.86771C10.4526 5.86771 11.766 7.18106 11.766 8.80049C11.766 10.4199 10.4526 11.7333 8.83321 11.7333Z" fill="white" style="fill:white;fill-opacity:1;"/>
<path d="M14.5872 4.10041C14.5872 4.68329 14.1146 5.15591 13.5316 5.15591C12.9487 5.15591 12.4761 4.68329 12.4761 4.10041C12.4761 3.5174 12.9487 3.04492 13.5316 3.04492C14.1146 3.04492 14.5872 3.5174 14.5872 4.10041Z" fill="white" style="fill:white;fill-opacity:1;"/>
</g>
<defs>
<clipPath id="clip0_68_585">
<rect width="17.6" height="17.6" fill="white" style="fill:white;fill-opacity:1;"/>
</clipPath>
</defs>
</svg>
