<svg width="18" height="17" viewBox="0 0 18 17" fill="none" xmlns="http://www.w3.org/2000/svg">
<path d="M2.33663 13.9579C2.53683 14.8379 2.75169 15.2024 3.90596 15.0132C4.24183 14.9575 4.66129 14.8878 5.17756 14.9729C6.03409 15.1151 8.29863 18.0001 11.5187 15.4554C12.1472 15.0154 12.4904 14.7719 13.7099 15.011C14.2423 15.1144 14.925 15.0051 15.2587 13.9579C18.4406 13.3852 17.7572 11.6303 16.8038 11.4771C15.1465 11.2065 14.0472 9.49559 13.9299 8.94999C14.0465 8.87812 14.3017 8.78939 14.4645 8.73366C17.1522 7.80379 15.6562 5.54072 13.8287 6.23886C13.9482 4.33219 13.9827 2.80466 12.4229 1.34019C10.7648 -0.211545 8.20329 -0.282678 6.53056 0.451389C3.61483 1.72592 3.63756 4.19506 3.76736 6.26819C2.60503 5.82379 1.81669 6.46399 1.68983 7.12032C1.49769 8.15506 2.48623 8.50266 3.07583 8.71019C3.28189 8.78279 3.62583 8.90379 3.67789 8.94266C3.61409 9.01672 3.24449 10.6601 1.05549 11.3861C0.637493 11.5247 0.242226 11.656 0.0706264 12.0388C-0.031307 12.2676 -0.0232403 12.5243 0.0970263 12.8007C0.39256 13.4871 1.35323 13.7819 2.33663 13.9579ZM4.62096 9.54546C5.10496 8.57012 4.46989 8.03846 3.44176 7.67619C3.22469 7.59992 2.82136 7.45766 2.76856 7.32712C2.78689 7.28092 2.93136 7.18852 3.06849 7.18852C3.11103 7.19146 3.23276 7.23839 3.31343 7.26846C6.79089 8.58552 2.68789 3.32752 6.97129 1.45606C8.28323 0.881122 10.3762 0.926589 11.6712 2.14026C13.7473 4.08799 12.1142 6.93186 13.0147 7.34179C13.6556 7.63292 14.2687 7.18486 14.4902 7.17826C14.6625 7.17826 14.8128 7.28092 14.829 7.31759C14.8319 7.44739 14.378 7.60432 14.1066 7.69819C12.8526 8.13159 12.461 8.65079 13.1702 9.94366C13.7048 10.919 14.8356 12.1327 16.333 12.5008C15.2822 13.108 14.4843 12.5734 14.2511 13.4915C14.1308 13.9792 14.0538 13.9623 13.9211 13.9367C10.206 13.2092 10.4598 17.068 6.68383 14.5461C5.39536 13.6859 5.14383 13.7775 3.46816 13.9711C3.39776 13.6947 3.35229 13.3955 3.25476 13.2151C2.99003 12.7252 2.01029 12.9731 1.24249 12.481C2.78323 11.9537 3.82529 11.3333 4.62096 9.54546Z" fill="white" style="fill:white;fill-opacity:1;"/>
</svg>
